<svg width="2791" height="686" viewBox="0 0 2791 686" fill="none" xmlns="http://www.w3.org/2000/svg">
<path d="M774 489.24V38.04H891.76V391.32H1092.72V489.24H774Z" fill="#231F20"/>
<path d="M1148.38 489.24V38.04H1467.1V128.92H1261.02V214.68H1452.38V305.56H1261.02V398.36H1467.1V489.24H1148.38Z" fill="#231F20"/>
<path d="M1541.5 489.24V38.04H1728.38C1806.46 38.04 1867.05 57.6667 1910.14 96.92C1953.23 136.173 1974.78 191.64 1974.78 263.32C1974.78 335 1953.23 390.68 1910.14 430.36C1867.05 469.613 1806.46 489.24 1728.38 489.24H1541.5ZM1659.26 393.88H1720.7C1765.5 393.88 1798.57 383.213 1819.9 361.88C1841.66 340.12 1852.54 307.267 1852.54 263.32C1852.54 219.373 1841.66 186.733 1819.9 165.4C1798.14 144.067 1765.07 133.4 1720.7 133.4H1659.26V393.88Z" fill="#231F20"/>
<path d="M2044.62 489.24V38.04H2363.34V128.92H2157.27V214.68H2348.62V305.56H2157.27V398.36H2363.34V489.24H2044.62Z" fill="#231F20"/>
<path d="M2599.18 496.28C2563.77 496.28 2529.85 492.013 2497.42 483.48C2464.99 474.52 2438.33 462.787 2417.42 448.28L2450.06 356.76C2469.69 369.987 2492.73 380.44 2519.18 388.12C2545.63 395.8 2572.3 399.64 2599.18 399.64C2627.34 399.64 2646.97 396.013 2658.06 388.76C2669.58 381.08 2675.34 371.693 2675.34 360.6C2675.34 350.787 2671.29 342.893 2663.18 336.92C2655.5 330.947 2641.63 325.827 2621.58 321.56L2546.7 305.56C2465.63 288.067 2425.1 245.613 2425.1 178.2C2425.1 148.76 2432.99 122.947 2448.78 100.76C2464.99 78.5733 2487.39 61.5067 2515.98 49.56C2544.57 37.1867 2577.85 31 2615.82 31C2646.97 31 2676.41 35.48 2704.14 44.44C2732.3 52.9733 2755.13 64.7067 2772.62 79.64L2739.98 165.4C2723.77 153.453 2704.99 144.28 2683.66 137.88C2662.33 131.053 2639.29 127.64 2614.54 127.64C2590.65 127.64 2572.3 131.907 2559.5 140.44C2546.7 148.547 2540.3 159.213 2540.3 172.44C2540.3 181.827 2544.14 189.507 2551.82 195.48C2559.5 201.453 2573.15 206.573 2592.78 210.84L2667.02 226.84C2749.37 244.333 2790.54 285.72 2790.54 351C2790.54 380.44 2782.65 406.04 2766.86 427.8C2751.07 449.56 2728.89 466.413 2700.3 478.36C2671.71 490.307 2638.01 496.28 2599.18 496.28Z" fill="#231F20"/>
<path d="M889.863 654.24V564H946.823V572.832H900.103V604.064H944.135V612.896H900.103V645.408H946.823V654.24H889.863Z" fill="#231F20"/>
<path d="M964.488 654.24V564H972.68L1027.08 636.576V564H1036.81V654.24H1028.87L974.344 581.408V654.24H964.488Z" fill="#231F20"/>
<path d="M1100.45 655.392C1085.95 655.392 1074.9 651.296 1067.3 643.104C1059.71 634.912 1055.91 623.605 1055.91 609.184C1055.91 599.627 1057.62 591.392 1061.03 584.48C1064.44 577.568 1069.35 572.235 1075.75 568.48C1082.15 564.725 1089.87 562.848 1098.92 562.848C1105.32 562.848 1111.21 563.829 1116.58 565.792C1121.96 567.669 1126.52 570.443 1130.28 574.112L1126.18 582.56C1122.09 578.976 1117.86 576.373 1113.51 574.752C1109.16 573.131 1104.25 572.32 1098.79 572.32C1088.55 572.32 1080.7 575.563 1075.24 582.048C1069.78 588.448 1067.05 597.493 1067.05 609.184C1067.05 621.131 1069.86 630.261 1075.49 636.576C1081.13 642.891 1089.53 646.048 1100.71 646.048C1107.96 646.048 1114.92 644.811 1121.57 642.336V615.584H1098.66V607.264H1130.66V648.992C1128.27 650.272 1125.37 651.381 1121.96 652.32C1118.63 653.259 1115.09 653.984 1111.33 654.496C1107.58 655.093 1103.95 655.392 1100.45 655.392Z" fill="#231F20"/>
<path d="M1152.11 654.24V564H1209.07V572.832H1162.35V604.064H1206.39V612.896H1162.35V645.408H1209.07V654.24H1152.11Z" fill="#231F20"/>
<path d="M1226.74 654.24V564H1234.93L1289.33 636.576V564H1299.06V654.24H1291.12L1236.59 581.408V654.24H1226.74Z" fill="#231F20"/>
<path d="M1321.49 654.24V564H1331.98V603.936H1386.13V564H1396.62V654.24H1386.13V613.024H1331.98V654.24H1321.49Z" fill="#231F20"/>
<path d="M1410.16 654.24L1449.97 564H1458.93L1498.74 654.24H1487.86L1477.87 631.2H1430.9L1421.04 654.24H1410.16ZM1454.32 576.288L1434.74 622.368H1474.16L1454.58 576.288H1454.32Z" fill="#231F20"/>
<path d="M1512.11 654.24V564H1547.83C1557.55 564 1564.98 566.261 1570.1 570.784C1575.3 575.307 1577.91 581.749 1577.91 590.112C1577.91 596.768 1576.07 602.229 1572.4 606.496C1568.82 610.763 1563.7 613.536 1557.04 614.816C1560.97 616.181 1564.34 619.509 1567.15 624.8L1583.03 654.24H1571.51L1555.89 625.312C1553.93 621.728 1551.67 619.296 1549.11 618.016C1546.55 616.736 1543.17 616.096 1538.99 616.096H1522.61V654.24H1512.11ZM1522.61 607.776H1546.29C1560.45 607.776 1567.54 601.888 1567.54 590.112C1567.54 578.507 1560.45 572.704 1546.29 572.704H1522.61V607.776Z" fill="#231F20"/>
<path d="M1597.74 654.24V564H1608.23V654.24H1597.74Z" fill="#231F20"/>
<path d="M1621.78 654.24L1661.59 564H1670.55L1710.36 654.24H1699.48L1689.5 631.2H1642.52L1632.66 654.24H1621.78ZM1665.94 576.288L1646.36 622.368H1685.78L1666.2 576.288H1665.94Z" fill="#231F20"/>
<path d="M1756.61 654.24V564H1787.08C1801.67 564 1812.93 567.883 1820.87 575.648C1828.81 583.328 1832.77 594.464 1832.77 609.056C1832.77 623.648 1828.81 634.827 1820.87 642.592C1812.93 650.357 1801.67 654.24 1787.08 654.24H1756.61ZM1767.11 645.28H1786.31C1809.86 645.28 1821.64 633.205 1821.64 609.056C1821.64 584.992 1809.86 572.96 1786.31 572.96H1767.11V645.28Z" fill="#231F20"/>
<path d="M1851.61 654.24V564H1908.57V572.832H1861.85V604.064H1905.89V612.896H1861.85V645.408H1908.57V654.24H1851.61Z" fill="#231F20"/>
<path d="M1988.3 655.392C1981.21 655.392 1974.81 654.496 1969.1 652.704C1963.38 650.827 1958.43 648.139 1954.25 644.64L1957.96 636.192C1962.31 639.52 1966.88 641.995 1971.66 643.616C1976.44 645.237 1981.98 646.048 1988.3 646.048C1995.98 646.048 2001.65 644.64 2005.32 641.824C2009.08 638.923 2010.95 635.125 2010.95 630.432C2010.95 626.677 2009.59 623.691 2006.86 621.472C2004.21 619.253 1999.73 617.504 1993.42 616.224L1980.11 613.536C1972.08 611.829 1966.07 609.056 1962.06 605.216C1958.13 601.291 1956.17 596.085 1956.17 589.6C1956.17 584.224 1957.53 579.531 1960.27 575.52C1963.08 571.509 1966.96 568.395 1971.91 566.176C1976.86 563.957 1982.58 562.848 1989.07 562.848C1995.12 562.848 2000.76 563.829 2005.96 565.792C2011.17 567.669 2015.56 570.4 2019.15 573.984L2015.43 582.176C2011.59 578.677 2007.54 576.16 2003.27 574.624C1999.01 573.003 1994.23 572.192 1988.94 572.192C1982.2 572.192 1976.82 573.771 1972.81 576.928C1968.8 580 1966.79 584.096 1966.79 589.216C1966.79 593.312 1968.03 596.555 1970.51 598.944C1973.07 601.333 1977.2 603.083 1982.92 604.192L1996.23 607.008C2004.85 608.8 2011.21 611.531 2015.31 615.2C2019.49 618.784 2021.58 623.691 2021.58 629.92C2021.58 634.955 2020.21 639.392 2017.48 643.232C2014.84 647.072 2011 650.059 2005.96 652.192C2001.01 654.325 1995.12 655.392 1988.3 655.392Z" fill="#231F20"/>
<path d="M2075.75 655.392C2067.39 655.392 2060.09 653.515 2053.86 649.76C2047.72 645.92 2042.94 640.544 2039.53 633.632C2036.2 626.72 2034.54 618.528 2034.54 609.056C2034.54 599.584 2036.2 591.392 2039.53 584.48C2042.86 577.568 2047.59 572.235 2053.74 568.48C2059.96 564.725 2067.3 562.848 2075.75 562.848C2084.28 562.848 2091.62 564.725 2097.77 568.48C2104 572.235 2108.78 577.568 2112.1 584.48C2115.52 591.307 2117.22 599.456 2117.22 608.928C2117.22 618.4 2115.52 626.635 2112.1 633.632C2108.69 640.544 2103.87 645.92 2097.64 649.76C2091.5 653.515 2084.2 655.392 2075.75 655.392ZM2075.75 646.048C2085.39 646.048 2092.86 642.805 2098.15 636.32C2103.44 629.835 2106.09 620.747 2106.09 609.056C2106.09 597.365 2103.44 588.32 2098.15 581.92C2092.86 575.435 2085.39 572.192 2075.75 572.192C2066.28 572.192 2058.9 575.435 2053.61 581.92C2048.32 588.32 2045.67 597.365 2045.67 609.056C2045.67 620.661 2048.32 629.749 2053.61 636.32C2058.9 642.805 2066.28 646.048 2075.75 646.048Z" fill="#231F20"/>
<path d="M2135.99 654.24V564H2191.8V572.832H2146.48V604.32H2189.24V613.152H2146.48V654.24H2135.99Z" fill="#231F20"/>
<path d="M2228.38 654.24V573.088H2195.61V564H2271.77V573.088H2239.01V654.24H2228.38Z" fill="#231F20"/>
<path d="M2309.06 654.24L2277.44 564H2288.45L2313.92 638.88L2340.03 564H2348.48L2374.34 639.52L2400.32 564H2410.82L2379.2 654.24H2369.86L2344.13 580L2318.15 654.24H2309.06Z" fill="#231F20"/>
<path d="M2409.91 654.24L2449.72 564H2458.68L2498.49 654.24H2487.61L2477.62 631.2H2430.65L2420.79 654.24H2409.91ZM2454.07 576.288L2434.49 622.368H2473.91L2454.33 576.288H2454.07Z" fill="#231F20"/>
<path d="M2511.86 654.24V564H2547.58C2557.3 564 2564.73 566.261 2569.85 570.784C2575.05 575.307 2577.66 581.749 2577.66 590.112C2577.66 596.768 2575.82 602.229 2572.15 606.496C2568.57 610.763 2563.45 613.536 2556.79 614.816C2560.72 616.181 2564.09 619.509 2566.9 624.8L2582.78 654.24H2571.26L2555.64 625.312C2553.68 621.728 2551.42 619.296 2548.86 618.016C2546.3 616.736 2542.92 616.096 2538.74 616.096H2522.36V654.24H2511.86ZM2522.36 607.776H2546.04C2560.2 607.776 2567.29 601.888 2567.29 590.112C2567.29 578.507 2560.2 572.704 2546.04 572.704H2522.36V607.776Z" fill="#231F20"/>
<path d="M2597.49 654.24V564H2654.45V572.832H2607.73V604.064H2651.76V612.896H2607.73V645.408H2654.45V654.24H2597.49Z" fill="#231F20"/>
<path d="M8.00001 389.207L8 180.414C8 136.231 43.8172 100.414 88 100.414L296.793 100.414V206.985C289.565 202.147 280.874 199.326 271.524 199.326C246.403 199.326 226.039 219.69 226.039 244.811C226.039 269.932 246.403 290.296 271.524 290.296C280.874 290.296 289.565 287.474 296.793 282.636V389.207H190.222C195.06 396.435 197.882 405.126 197.882 414.477C197.882 439.597 177.517 459.962 152.397 459.962C127.276 459.962 106.912 439.597 106.912 414.477C106.912 405.126 109.733 396.435 114.571 389.207H8.00001Z" stroke="#231F20" stroke-width="16"/>
<path d="M296.793 389.207L190.222 389.207C195.06 396.435 197.881 405.126 197.881 414.476C197.881 439.597 177.517 459.961 152.397 459.961C127.276 459.961 106.912 439.597 106.912 414.476C106.912 405.126 109.733 396.435 114.571 389.207L8 389.207L8.00002 598C8.00002 642.183 43.8173 678 88 678H296.793V571.429C304.021 576.267 312.712 579.088 322.062 579.088C347.183 579.088 367.547 558.724 367.547 533.603C367.547 508.483 347.183 488.118 322.062 488.118C312.712 488.118 304.021 490.94 296.793 495.778L296.793 389.207Z" stroke="#231F20" stroke-width="16"/>
<path d="M585.587 389.207L585.587 598C585.587 642.183 549.77 678 505.587 678L296.794 678L296.794 571.429C304.021 576.267 312.713 579.088 322.063 579.088C347.184 579.088 367.548 558.724 367.548 533.603C367.548 508.483 347.184 488.119 322.063 488.119C312.713 488.119 304.021 490.94 296.794 495.778L296.794 389.207L403.365 389.207C398.527 381.98 395.705 373.288 395.705 363.938C395.705 338.817 416.07 318.453 441.19 318.453C466.311 318.453 486.675 338.817 486.675 363.938C486.675 373.288 483.854 381.98 479.016 389.207L585.587 389.207Z" stroke="#231F20" stroke-width="16"/>
<path d="M389.206 8L597.999 8C642.182 8 677.999 43.8172 677.999 88V296.793H571.429C576.266 289.565 579.088 280.874 579.088 271.524C579.088 246.403 558.723 226.039 533.603 226.039C508.482 226.039 488.118 246.403 488.118 271.524C488.118 280.874 490.939 289.565 495.777 296.793H389.206L389.206 190.222C381.979 195.06 373.287 197.882 363.937 197.882C338.816 197.882 318.452 177.517 318.452 152.397C318.452 127.276 338.816 106.912 363.937 106.912C373.287 106.912 381.979 109.733 389.206 114.571L389.206 8Z" stroke="#231F20" stroke-width="16"/>
</svg>
