<svg width="3289" height="1078" viewBox="0 0 3289 1078" fill="none" xmlns="http://www.w3.org/2000/svg">
<rect width="3289" height="1078" fill="#231F20"/>
<path d="M1019 685.24V234.04H1136.76V587.32H1337.72V685.24H1019Z" fill="white"/>
<path d="M1393.38 685.24V234.04H1712.1V324.92H1506.02V410.68H1697.38V501.56H1506.02V594.36H1712.1V685.24H1393.38Z" fill="white"/>
<path d="M1786.5 685.24V234.04H1973.38C2051.46 234.04 2112.05 253.667 2155.14 292.92C2198.23 332.173 2219.78 387.64 2219.78 459.32C2219.78 531 2198.23 586.68 2155.14 626.36C2112.05 665.613 2051.46 685.24 1973.38 685.24H1786.5ZM1904.26 589.88H1965.7C2010.5 589.88 2043.57 579.213 2064.9 557.88C2086.66 536.12 2097.54 503.267 2097.54 459.32C2097.54 415.373 2086.66 382.733 2064.9 361.4C2043.14 340.067 2010.07 329.4 1965.7 329.4H1904.26V589.88Z" fill="white"/>
<path d="M2289.62 685.24V234.04H2608.34V324.92H2402.27V410.68H2593.62V501.56H2402.27V594.36H2608.34V685.24H2289.62Z" fill="white"/>
<path d="M2844.18 692.28C2808.77 692.28 2774.85 688.013 2742.42 679.48C2709.99 670.52 2683.33 658.787 2662.42 644.28L2695.06 552.76C2714.69 565.987 2737.73 576.44 2764.18 584.12C2790.63 591.8 2817.3 595.64 2844.18 595.64C2872.34 595.64 2891.97 592.013 2903.06 584.76C2914.58 577.08 2920.34 567.693 2920.34 556.6C2920.34 546.787 2916.29 538.893 2908.18 532.92C2900.5 526.947 2886.63 521.827 2866.58 517.56L2791.7 501.56C2710.63 484.067 2670.1 441.613 2670.1 374.2C2670.1 344.76 2677.99 318.947 2693.78 296.76C2709.99 274.573 2732.39 257.507 2760.98 245.56C2789.57 233.187 2822.85 227 2860.82 227C2891.97 227 2921.41 231.48 2949.14 240.44C2977.3 248.973 3000.13 260.707 3017.62 275.64L2984.98 361.4C2968.77 349.453 2949.99 340.28 2928.66 333.88C2907.33 327.053 2884.29 323.64 2859.54 323.64C2835.65 323.64 2817.3 327.907 2804.5 336.44C2791.7 344.547 2785.3 355.213 2785.3 368.44C2785.3 377.827 2789.14 385.507 2796.82 391.48C2804.5 397.453 2818.15 402.573 2837.78 406.84L2912.02 422.84C2994.37 440.333 3035.54 481.72 3035.54 547C3035.54 576.44 3027.65 602.04 3011.86 623.8C2996.07 645.56 2973.89 662.413 2945.3 674.36C2916.71 686.307 2883.01 692.28 2844.18 692.28Z" fill="white"/>
<path d="M1134.86 850.24V760H1191.82V768.832H1145.1V800.064H1189.14V808.896H1145.1V841.408H1191.82V850.24H1134.86Z" fill="white"/>
<path d="M1209.49 850.24V760H1217.68L1272.08 832.576V760H1281.81V850.24H1273.87L1219.34 777.408V850.24H1209.49Z" fill="white"/>
<path d="M1345.45 851.392C1330.95 851.392 1319.9 847.296 1312.3 839.104C1304.71 830.912 1300.91 819.605 1300.91 805.184C1300.91 795.627 1302.62 787.392 1306.03 780.48C1309.44 773.568 1314.35 768.235 1320.75 764.48C1327.15 760.725 1334.87 758.848 1343.92 758.848C1350.32 758.848 1356.21 759.829 1361.58 761.792C1366.96 763.669 1371.52 766.443 1375.28 770.112L1371.18 778.56C1367.09 774.976 1362.86 772.373 1358.51 770.752C1354.16 769.131 1349.25 768.32 1343.79 768.32C1333.55 768.32 1325.7 771.563 1320.24 778.048C1314.78 784.448 1312.05 793.493 1312.05 805.184C1312.05 817.131 1314.86 826.261 1320.49 832.576C1326.13 838.891 1334.53 842.048 1345.71 842.048C1352.96 842.048 1359.92 840.811 1366.57 838.336V811.584H1343.66V803.264H1375.66V844.992C1373.27 846.272 1370.37 847.381 1366.96 848.32C1363.63 849.259 1360.09 849.984 1356.33 850.496C1352.58 851.093 1348.95 851.392 1345.45 851.392Z" fill="white"/>
<path d="M1397.11 850.24V760H1454.07V768.832H1407.35V800.064H1451.39V808.896H1407.35V841.408H1454.07V850.24H1397.11Z" fill="white"/>
<path d="M1471.74 850.24V760H1479.93L1534.33 832.576V760H1544.06V850.24H1536.12L1481.59 777.408V850.24H1471.74Z" fill="white"/>
<path d="M1566.49 850.24V760H1576.98V799.936H1631.13V760H1641.62V850.24H1631.13V809.024H1576.98V850.24H1566.49Z" fill="white"/>
<path d="M1655.16 850.24L1694.97 760H1703.93L1743.74 850.24H1732.86L1722.87 827.2H1675.9L1666.04 850.24H1655.16ZM1699.32 772.288L1679.74 818.368H1719.16L1699.58 772.288H1699.32Z" fill="white"/>
<path d="M1757.11 850.24V760H1792.83C1802.55 760 1809.98 762.261 1815.1 766.784C1820.3 771.307 1822.91 777.749 1822.91 786.112C1822.91 792.768 1821.07 798.229 1817.4 802.496C1813.82 806.763 1808.7 809.536 1802.04 810.816C1805.97 812.181 1809.34 815.509 1812.15 820.8L1828.03 850.24H1816.51L1800.89 821.312C1798.93 817.728 1796.67 815.296 1794.11 814.016C1791.55 812.736 1788.17 812.096 1783.99 812.096H1767.61V850.24H1757.11ZM1767.61 803.776H1791.29C1805.45 803.776 1812.54 797.888 1812.54 786.112C1812.54 774.507 1805.45 768.704 1791.29 768.704H1767.61V803.776Z" fill="white"/>
<path d="M1842.74 850.24V760H1853.23V850.24H1842.74Z" fill="white"/>
<path d="M1866.78 850.24L1906.59 760H1915.55L1955.36 850.24H1944.48L1934.5 827.2H1887.52L1877.66 850.24H1866.78ZM1910.94 772.288L1891.36 818.368H1930.78L1911.2 772.288H1910.94Z" fill="white"/>
<path d="M2001.61 850.24V760H2032.08C2046.67 760 2057.93 763.883 2065.87 771.648C2073.81 779.328 2077.77 790.464 2077.77 805.056C2077.77 819.648 2073.81 830.827 2065.87 838.592C2057.93 846.357 2046.67 850.24 2032.08 850.24H2001.61ZM2012.11 841.28H2031.31C2054.86 841.28 2066.64 829.205 2066.64 805.056C2066.64 780.992 2054.86 768.96 2031.31 768.96H2012.11V841.28Z" fill="white"/>
<path d="M2096.61 850.24V760H2153.57V768.832H2106.85V800.064H2150.89V808.896H2106.85V841.408H2153.57V850.24H2096.61Z" fill="white"/>
<path d="M2233.3 851.392C2226.21 851.392 2219.81 850.496 2214.1 848.704C2208.38 846.827 2203.43 844.139 2199.25 840.64L2202.96 832.192C2207.31 835.52 2211.88 837.995 2216.66 839.616C2221.44 841.237 2226.98 842.048 2233.3 842.048C2240.98 842.048 2246.65 840.64 2250.32 837.824C2254.08 834.923 2255.95 831.125 2255.95 826.432C2255.95 822.677 2254.59 819.691 2251.86 817.472C2249.21 815.253 2244.73 813.504 2238.42 812.224L2225.11 809.536C2217.08 807.829 2211.07 805.056 2207.06 801.216C2203.13 797.291 2201.17 792.085 2201.17 785.6C2201.17 780.224 2202.53 775.531 2205.27 771.52C2208.08 767.509 2211.96 764.395 2216.91 762.176C2221.86 759.957 2227.58 758.848 2234.07 758.848C2240.12 758.848 2245.76 759.829 2250.96 761.792C2256.17 763.669 2260.56 766.4 2264.15 769.984L2260.43 778.176C2256.59 774.677 2252.54 772.16 2248.27 770.624C2244.01 769.003 2239.23 768.192 2233.94 768.192C2227.2 768.192 2221.82 769.771 2217.81 772.928C2213.8 776 2211.79 780.096 2211.79 785.216C2211.79 789.312 2213.03 792.555 2215.51 794.944C2218.07 797.333 2222.2 799.083 2227.92 800.192L2241.23 803.008C2249.85 804.8 2256.21 807.531 2260.31 811.2C2264.49 814.784 2266.58 819.691 2266.58 825.92C2266.58 830.955 2265.21 835.392 2262.48 839.232C2259.84 843.072 2256 846.059 2250.96 848.192C2246.01 850.325 2240.12 851.392 2233.3 851.392Z" fill="white"/>
<path d="M2320.75 851.392C2312.39 851.392 2305.09 849.515 2298.86 845.76C2292.72 841.92 2287.94 836.544 2284.53 829.632C2281.2 822.72 2279.54 814.528 2279.54 805.056C2279.54 795.584 2281.2 787.392 2284.53 780.48C2287.86 773.568 2292.59 768.235 2298.74 764.48C2304.96 760.725 2312.3 758.848 2320.75 758.848C2329.28 758.848 2336.62 760.725 2342.77 764.48C2349 768.235 2353.78 773.568 2357.1 780.48C2360.52 787.307 2362.22 795.456 2362.22 804.928C2362.22 814.4 2360.52 822.635 2357.1 829.632C2353.69 836.544 2348.87 841.92 2342.64 845.76C2336.5 849.515 2329.2 851.392 2320.75 851.392ZM2320.75 842.048C2330.39 842.048 2337.86 838.805 2343.15 832.32C2348.44 825.835 2351.09 816.747 2351.09 805.056C2351.09 793.365 2348.44 784.32 2343.15 777.92C2337.86 771.435 2330.39 768.192 2320.75 768.192C2311.28 768.192 2303.9 771.435 2298.61 777.92C2293.32 784.32 2290.67 793.365 2290.67 805.056C2290.67 816.661 2293.32 825.749 2298.61 832.32C2303.9 838.805 2311.28 842.048 2320.75 842.048Z" fill="white"/>
<path d="M2380.99 850.24V760H2436.8V768.832H2391.48V800.32H2434.24V809.152H2391.48V850.24H2380.99Z" fill="white"/>
<path d="M2473.38 850.24V769.088H2440.61V760H2516.77V769.088H2484.01V850.24H2473.38Z" fill="white"/>
<path d="M2554.06 850.24L2522.44 760H2533.45L2558.92 834.88L2585.03 760H2593.48L2619.34 835.52L2645.32 760H2655.82L2624.2 850.24H2614.86L2589.13 776L2563.15 850.24H2554.06Z" fill="white"/>
<path d="M2654.91 850.24L2694.72 760H2703.68L2743.49 850.24H2732.61L2722.62 827.2H2675.65L2665.79 850.24H2654.91ZM2699.07 772.288L2679.49 818.368H2718.91L2699.33 772.288H2699.07Z" fill="white"/>
<path d="M2756.86 850.24V760H2792.58C2802.3 760 2809.73 762.261 2814.85 766.784C2820.05 771.307 2822.66 777.749 2822.66 786.112C2822.66 792.768 2820.82 798.229 2817.15 802.496C2813.57 806.763 2808.45 809.536 2801.79 810.816C2805.72 812.181 2809.09 815.509 2811.9 820.8L2827.78 850.24H2816.26L2800.64 821.312C2798.68 817.728 2796.42 815.296 2793.86 814.016C2791.3 812.736 2787.92 812.096 2783.74 812.096H2767.36V850.24H2756.86ZM2767.36 803.776H2791.04C2805.2 803.776 2812.29 797.888 2812.29 786.112C2812.29 774.507 2805.2 768.704 2791.04 768.704H2767.36V803.776Z" fill="white"/>
<path d="M2842.49 850.24V760H2899.45V768.832H2852.73V800.064H2896.76V808.896H2852.73V841.408H2899.45V850.24H2842.49Z" fill="white"/>
<path d="M253 585.207L253 376.414C253 332.231 288.817 296.414 333 296.414L541.793 296.414V402.985C534.565 398.147 525.874 395.326 516.524 395.326C491.403 395.326 471.039 415.69 471.039 440.811C471.039 465.932 491.403 486.296 516.524 486.296C525.874 486.296 534.565 483.474 541.793 478.636V585.207H435.222C440.06 592.435 442.882 601.126 442.882 610.477C442.882 635.597 422.517 655.962 397.397 655.962C372.276 655.962 351.912 635.597 351.912 610.477C351.912 601.126 354.733 592.435 359.571 585.207H253Z" fill="#117FCD"/>
<path d="M541.793 585.207L435.222 585.207C440.06 592.435 442.881 601.126 442.881 610.476C442.881 635.597 422.517 655.961 397.397 655.961C372.276 655.961 351.912 635.597 351.912 610.476C351.912 601.126 354.733 592.435 359.571 585.207L253 585.207L253 794C253 838.183 288.817 874 333 874H541.793V767.429C549.021 772.267 557.712 775.088 567.062 775.088C592.183 775.088 612.547 754.724 612.547 729.603C612.547 704.483 592.183 684.118 567.062 684.118C557.712 684.118 549.021 686.94 541.793 691.778L541.793 585.207Z" fill="#F9AA21"/>
<path d="M830.587 585.207L830.587 794C830.587 838.183 794.77 874 750.587 874L541.794 874L541.794 767.429C549.021 772.267 557.713 775.088 567.063 775.088C592.183 775.088 612.548 754.724 612.548 729.603C612.548 704.483 592.183 684.119 567.063 684.119C557.713 684.119 549.021 686.94 541.794 691.778L541.794 585.207L648.365 585.207C643.527 577.98 640.705 569.288 640.705 559.938C640.705 534.817 661.069 514.453 686.19 514.453C711.311 514.453 731.675 534.817 731.675 559.938C731.675 569.288 728.853 577.98 724.015 585.207L830.587 585.207Z" fill="#EE2049"/>
<path d="M634.207 204L843 204C887.182 204 923 239.817 923 284V492.793H816.429C821.267 485.565 824.088 476.874 824.088 467.524C824.088 442.403 803.724 422.039 778.603 422.039C753.482 422.039 733.118 442.403 733.118 467.524C733.118 476.874 735.939 485.565 740.777 492.793H634.207L634.207 386.222C626.979 391.06 618.288 393.882 608.937 393.882C583.817 393.882 563.452 373.517 563.452 348.397C563.452 323.276 583.817 302.912 608.937 302.912C618.288 302.912 626.979 305.733 634.207 310.571L634.207 204Z" fill="#0CAA58"/>
</svg>
