<svg width="2783" height="670" viewBox="0 0 2783 670" fill="none" xmlns="http://www.w3.org/2000/svg">
<path d="M766 481.24V30.04H883.76V383.32H1084.72V481.24H766Z" fill="#231F20"/>
<path d="M1140.38 481.24V30.04H1459.1V120.92H1253.02V206.68H1444.38V297.56H1253.02V390.36H1459.1V481.24H1140.38Z" fill="#231F20"/>
<path d="M1533.5 481.24V30.04H1720.38C1798.46 30.04 1859.05 49.6667 1902.14 88.92C1945.23 128.173 1966.78 183.64 1966.78 255.32C1966.78 327 1945.23 382.68 1902.14 422.36C1859.05 461.613 1798.46 481.24 1720.38 481.24H1533.5ZM1651.26 385.88H1712.7C1757.5 385.88 1790.57 375.213 1811.9 353.88C1833.66 332.12 1844.54 299.267 1844.54 255.32C1844.54 211.373 1833.66 178.733 1811.9 157.4C1790.14 136.067 1757.07 125.4 1712.7 125.4H1651.26V385.88Z" fill="#231F20"/>
<path d="M2036.62 481.24V30.04H2355.34V120.92H2149.27V206.68H2340.62V297.56H2149.27V390.36H2355.34V481.24H2036.62Z" fill="#231F20"/>
<path d="M2591.18 488.28C2555.77 488.28 2521.85 484.013 2489.42 475.48C2456.99 466.52 2430.33 454.787 2409.42 440.28L2442.06 348.76C2461.69 361.987 2484.73 372.44 2511.18 380.12C2537.63 387.8 2564.3 391.64 2591.18 391.64C2619.34 391.64 2638.97 388.013 2650.06 380.76C2661.58 373.08 2667.34 363.693 2667.34 352.6C2667.34 342.787 2663.29 334.893 2655.18 328.92C2647.5 322.947 2633.63 317.827 2613.58 313.56L2538.7 297.56C2457.63 280.067 2417.1 237.613 2417.1 170.2C2417.1 140.76 2424.99 114.947 2440.78 92.76C2456.99 70.5733 2479.39 53.5067 2507.98 41.56C2536.57 29.1867 2569.85 23 2607.82 23C2638.97 23 2668.41 27.48 2696.14 36.44C2724.3 44.9733 2747.13 56.7067 2764.62 71.64L2731.98 157.4C2715.77 145.453 2696.99 136.28 2675.66 129.88C2654.33 123.053 2631.29 119.64 2606.54 119.64C2582.65 119.64 2564.3 123.907 2551.5 132.44C2538.7 140.547 2532.3 151.213 2532.3 164.44C2532.3 173.827 2536.14 181.507 2543.82 187.48C2551.5 193.453 2565.15 198.573 2584.78 202.84L2659.02 218.84C2741.37 236.333 2782.54 277.72 2782.54 343C2782.54 372.44 2774.65 398.04 2758.86 419.8C2743.07 441.56 2720.89 458.413 2692.3 470.36C2663.71 482.307 2630.01 488.28 2591.18 488.28Z" fill="#231F20"/>
<path d="M881.864 646.24V556H938.824V564.832H892.104V596.064H936.136V604.896H892.104V637.408H938.824V646.24H881.864Z" fill="#231F20"/>
<path d="M956.489 646.24V556H964.681L1019.08 628.576V556H1028.81V646.24H1020.87L966.345 573.408V646.24H956.489Z" fill="#231F20"/>
<path d="M1092.45 647.392C1077.95 647.392 1066.9 643.296 1059.3 635.104C1051.71 626.912 1047.91 615.605 1047.91 601.184C1047.91 591.627 1049.62 583.392 1053.03 576.48C1056.44 569.568 1061.35 564.235 1067.75 560.48C1074.15 556.725 1081.87 554.848 1090.92 554.848C1097.32 554.848 1103.21 555.829 1108.58 557.792C1113.96 559.669 1118.52 562.443 1122.28 566.112L1118.18 574.56C1114.09 570.976 1109.86 568.373 1105.51 566.752C1101.16 565.131 1096.25 564.32 1090.79 564.32C1080.55 564.32 1072.7 567.563 1067.24 574.048C1061.78 580.448 1059.05 589.493 1059.05 601.184C1059.05 613.131 1061.86 622.261 1067.49 628.576C1073.13 634.891 1081.53 638.048 1092.71 638.048C1099.96 638.048 1106.92 636.811 1113.57 634.336V607.584H1090.66V599.264H1122.66V640.992C1120.27 642.272 1117.37 643.381 1113.96 644.32C1110.63 645.259 1107.09 645.984 1103.33 646.496C1099.58 647.093 1095.95 647.392 1092.45 647.392Z" fill="#231F20"/>
<path d="M1144.11 646.24V556H1201.07V564.832H1154.35V596.064H1198.39V604.896H1154.35V637.408H1201.07V646.24H1144.11Z" fill="#231F20"/>
<path d="M1218.74 646.24V556H1226.93L1281.33 628.576V556H1291.06V646.24H1283.12L1228.59 573.408V646.24H1218.74Z" fill="#231F20"/>
<path d="M1313.49 646.24V556H1323.98V595.936H1378.13V556H1388.62V646.24H1378.13V605.024H1323.98V646.24H1313.49Z" fill="#231F20"/>
<path d="M1402.16 646.24L1441.97 556H1450.93L1490.74 646.24H1479.86L1469.87 623.2H1422.9L1413.04 646.24H1402.16ZM1446.32 568.288L1426.74 614.368H1466.16L1446.58 568.288H1446.32Z" fill="#231F20"/>
<path d="M1504.11 646.24V556H1539.83C1549.55 556 1556.98 558.261 1562.1 562.784C1567.3 567.307 1569.91 573.749 1569.91 582.112C1569.91 588.768 1568.07 594.229 1564.4 598.496C1560.82 602.763 1555.7 605.536 1549.04 606.816C1552.97 608.181 1556.34 611.509 1559.15 616.8L1575.03 646.24H1563.51L1547.89 617.312C1545.93 613.728 1543.67 611.296 1541.11 610.016C1538.55 608.736 1535.17 608.096 1530.99 608.096H1514.61V646.24H1504.11ZM1514.61 599.776H1538.29C1552.45 599.776 1559.54 593.888 1559.54 582.112C1559.54 570.507 1552.45 564.704 1538.29 564.704H1514.61V599.776Z" fill="#231F20"/>
<path d="M1589.74 646.24V556H1600.23V646.24H1589.74Z" fill="#231F20"/>
<path d="M1613.78 646.24L1653.59 556H1662.55L1702.36 646.24H1691.48L1681.5 623.2H1634.52L1624.66 646.24H1613.78ZM1657.94 568.288L1638.36 614.368H1677.78L1658.2 568.288H1657.94Z" fill="#231F20"/>
<path d="M1748.61 646.24V556H1779.08C1793.67 556 1804.93 559.883 1812.87 567.648C1820.81 575.328 1824.77 586.464 1824.77 601.056C1824.77 615.648 1820.81 626.827 1812.87 634.592C1804.93 642.357 1793.67 646.24 1779.08 646.24H1748.61ZM1759.11 637.28H1778.31C1801.86 637.28 1813.64 625.205 1813.64 601.056C1813.64 576.992 1801.86 564.96 1778.31 564.96H1759.11V637.28Z" fill="#231F20"/>
<path d="M1843.61 646.24V556H1900.57V564.832H1853.85V596.064H1897.89V604.896H1853.85V637.408H1900.57V646.24H1843.61Z" fill="#231F20"/>
<path d="M1980.3 647.392C1973.21 647.392 1966.81 646.496 1961.1 644.704C1955.38 642.827 1950.43 640.139 1946.25 636.64L1949.96 628.192C1954.31 631.52 1958.88 633.995 1963.66 635.616C1968.44 637.237 1973.98 638.048 1980.3 638.048C1987.98 638.048 1993.65 636.64 1997.32 633.824C2001.08 630.923 2002.95 627.125 2002.95 622.432C2002.95 618.677 2001.59 615.691 1998.86 613.472C1996.21 611.253 1991.73 609.504 1985.42 608.224L1972.11 605.536C1964.08 603.829 1958.07 601.056 1954.06 597.216C1950.13 593.291 1948.17 588.085 1948.17 581.6C1948.17 576.224 1949.53 571.531 1952.27 567.52C1955.08 563.509 1958.96 560.395 1963.91 558.176C1968.86 555.957 1974.58 554.848 1981.07 554.848C1987.12 554.848 1992.76 555.829 1997.96 557.792C2003.17 559.669 2007.56 562.4 2011.15 565.984L2007.43 574.176C2003.59 570.677 1999.54 568.16 1995.27 566.624C1991.01 565.003 1986.23 564.192 1980.94 564.192C1974.2 564.192 1968.82 565.771 1964.81 568.928C1960.8 572 1958.79 576.096 1958.79 581.216C1958.79 585.312 1960.03 588.555 1962.51 590.944C1965.07 593.333 1969.2 595.083 1974.92 596.192L1988.23 599.008C1996.85 600.8 2003.21 603.531 2007.31 607.2C2011.49 610.784 2013.58 615.691 2013.58 621.92C2013.58 626.955 2012.21 631.392 2009.48 635.232C2006.84 639.072 2003 642.059 1997.96 644.192C1993.01 646.325 1987.12 647.392 1980.3 647.392Z" fill="#231F20"/>
<path d="M2067.75 647.392C2059.39 647.392 2052.09 645.515 2045.86 641.76C2039.72 637.92 2034.94 632.544 2031.53 625.632C2028.2 618.72 2026.54 610.528 2026.54 601.056C2026.54 591.584 2028.2 583.392 2031.53 576.48C2034.86 569.568 2039.59 564.235 2045.74 560.48C2051.96 556.725 2059.3 554.848 2067.75 554.848C2076.28 554.848 2083.62 556.725 2089.77 560.48C2096 564.235 2100.78 569.568 2104.1 576.48C2107.52 583.307 2109.22 591.456 2109.22 600.928C2109.22 610.4 2107.52 618.635 2104.1 625.632C2100.69 632.544 2095.87 637.92 2089.64 641.76C2083.5 645.515 2076.2 647.392 2067.75 647.392ZM2067.75 638.048C2077.39 638.048 2084.86 634.805 2090.15 628.32C2095.44 621.835 2098.09 612.747 2098.09 601.056C2098.09 589.365 2095.44 580.32 2090.15 573.92C2084.86 567.435 2077.39 564.192 2067.75 564.192C2058.28 564.192 2050.9 567.435 2045.61 573.92C2040.32 580.32 2037.67 589.365 2037.67 601.056C2037.67 612.661 2040.32 621.749 2045.61 628.32C2050.9 634.805 2058.28 638.048 2067.75 638.048Z" fill="#231F20"/>
<path d="M2127.99 646.24V556H2183.8V564.832H2138.48V596.32H2181.24V605.152H2138.48V646.24H2127.99Z" fill="#231F20"/>
<path d="M2220.38 646.24V565.088H2187.61V556H2263.77V565.088H2231.01V646.24H2220.38Z" fill="#231F20"/>
<path d="M2301.06 646.24L2269.44 556H2280.45L2305.92 630.88L2332.03 556H2340.48L2366.34 631.52L2392.32 556H2402.82L2371.2 646.24H2361.86L2336.13 572L2310.15 646.24H2301.06Z" fill="#231F20"/>
<path d="M2401.91 646.24L2441.72 556H2450.68L2490.49 646.24H2479.61L2469.62 623.2H2422.65L2412.79 646.24H2401.91ZM2446.07 568.288L2426.49 614.368H2465.91L2446.33 568.288H2446.07Z" fill="#231F20"/>
<path d="M2503.86 646.24V556H2539.58C2549.3 556 2556.73 558.261 2561.85 562.784C2567.05 567.307 2569.66 573.749 2569.66 582.112C2569.66 588.768 2567.82 594.229 2564.15 598.496C2560.57 602.763 2555.45 605.536 2548.79 606.816C2552.72 608.181 2556.09 611.509 2558.9 616.8L2574.78 646.24H2563.26L2547.64 617.312C2545.68 613.728 2543.42 611.296 2540.86 610.016C2538.3 608.736 2534.92 608.096 2530.74 608.096H2514.36V646.24H2503.86ZM2514.36 599.776H2538.04C2552.2 599.776 2559.29 593.888 2559.29 582.112C2559.29 570.507 2552.2 564.704 2538.04 564.704H2514.36V599.776Z" fill="#231F20"/>
<path d="M2589.49 646.24V556H2646.45V564.832H2599.73V596.064H2643.76V604.896H2599.73V637.408H2646.45V646.24H2589.49Z" fill="#231F20"/>
<path d="M9.12663e-06 381.207L0 172.414C-1.93129e-06 128.231 35.8172 92.4141 80 92.4141L288.793 92.4141V198.985C281.565 194.147 272.874 191.326 263.524 191.326C238.403 191.326 218.039 211.69 218.039 236.811C218.039 261.932 238.403 282.296 263.524 282.296C272.874 282.296 281.565 279.474 288.793 274.636V381.207H182.222C187.06 388.435 189.882 397.126 189.882 406.477C189.882 431.597 169.517 451.962 144.397 451.962C119.276 451.962 98.9119 431.597 98.9119 406.477C98.9119 397.126 101.733 388.435 106.571 381.207H9.12663e-06Z" fill="#117FCD"/>
<path d="M288.793 381.207L182.222 381.207C187.06 388.435 189.881 397.126 189.881 406.476C189.881 431.597 169.517 451.961 144.397 451.961C119.276 451.961 98.9117 431.597 98.9117 406.476C98.9117 397.126 101.733 388.435 106.571 381.207L0 381.207L1.82533e-05 590C2.21159e-05 634.183 35.8173 670 80 670H288.793V563.429C296.021 568.267 304.712 571.088 314.062 571.088C339.183 571.088 359.547 550.724 359.547 525.603C359.547 500.483 339.183 480.118 314.062 480.118C304.712 480.118 296.021 482.94 288.793 487.778L288.793 381.207Z" fill="#F9AA21"/>
<path d="M577.587 381.207L577.587 590C577.587 634.183 541.77 670 497.587 670L288.794 670L288.794 563.429C296.021 568.267 304.713 571.088 314.063 571.088C339.184 571.088 359.548 550.724 359.548 525.603C359.548 500.483 339.184 480.119 314.063 480.119C304.713 480.119 296.021 482.94 288.794 487.778L288.794 381.207L395.365 381.207C390.527 373.98 387.705 365.288 387.705 355.938C387.705 330.817 408.07 310.453 433.19 310.453C458.311 310.453 478.675 330.817 478.675 355.938C478.675 365.288 475.854 373.98 471.016 381.207L577.587 381.207Z" fill="#EE2049"/>
<path d="M381.206 0L589.999 0C634.182 0 669.999 35.8172 669.999 80V288.793H563.429C568.266 281.565 571.088 272.874 571.088 263.524C571.088 238.403 550.723 218.039 525.603 218.039C500.482 218.039 480.118 238.403 480.118 263.524C480.118 272.874 482.939 281.565 487.777 288.793H381.206L381.206 182.222C373.979 187.06 365.287 189.882 355.937 189.882C330.816 189.882 310.452 169.517 310.452 144.397C310.452 119.276 330.816 98.9119 355.937 98.9119C365.287 98.9119 373.979 101.733 381.206 106.571L381.206 0Z" fill="#0CAA58"/>
</svg>
