<svg width="670" height="670" viewBox="0 0 670 670" fill="none" xmlns="http://www.w3.org/2000/svg">
<path d="M9.12663e-06 381.207L0 172.414C-1.93129e-06 128.231 35.8172 92.4141 80 92.4141L288.793 92.4141V198.985C281.565 194.147 272.874 191.326 263.524 191.326C238.403 191.326 218.039 211.69 218.039 236.811C218.039 261.932 238.403 282.296 263.524 282.296C272.874 282.296 281.565 279.474 288.793 274.636V381.207H182.222C187.06 388.435 189.882 397.126 189.882 406.477C189.882 431.597 169.517 451.962 144.397 451.962C119.276 451.962 98.9119 431.597 98.9119 406.477C98.9119 397.126 101.733 388.435 106.571 381.207H9.12663e-06Z" fill="#117FCD"/>
<path d="M288.793 381.207L182.222 381.207C187.06 388.435 189.881 397.126 189.881 406.476C189.881 431.597 169.517 451.961 144.397 451.961C119.276 451.961 98.9117 431.597 98.9117 406.476C98.9117 397.126 101.733 388.435 106.571 381.207L0 381.207L1.82533e-05 590C2.21159e-05 634.183 35.8173 670 80 670H288.793V563.429C296.021 568.267 304.712 571.088 314.062 571.088C339.183 571.088 359.547 550.724 359.547 525.603C359.547 500.483 339.183 480.118 314.062 480.118C304.712 480.118 296.021 482.94 288.793 487.778L288.793 381.207Z" fill="#F9AA21"/>
<path d="M577.587 381.207L577.587 590C577.587 634.183 541.77 670 497.587 670L288.794 670L288.794 563.429C296.021 568.267 304.713 571.088 314.063 571.088C339.184 571.088 359.548 550.724 359.548 525.603C359.548 500.483 339.184 480.119 314.063 480.119C304.713 480.119 296.021 482.94 288.794 487.778L288.794 381.207L395.365 381.207C390.527 373.98 387.705 365.288 387.705 355.938C387.705 330.817 408.07 310.453 433.19 310.453C458.311 310.453 478.675 330.817 478.675 355.938C478.675 365.288 475.854 373.98 471.016 381.207L577.587 381.207Z" fill="#EE2049"/>
<path d="M381.206 0L589.999 0C634.182 0 669.999 35.8172 669.999 80V288.793H563.429C568.266 281.565 571.088 272.874 571.088 263.524C571.088 238.403 550.723 218.039 525.603 218.039C500.482 218.039 480.118 238.403 480.118 263.524C480.118 272.874 482.939 281.565 487.777 288.793H381.206L381.206 182.222C373.979 187.06 365.287 189.882 355.937 189.882C330.816 189.882 310.452 169.517 310.452 144.397C310.452 119.276 330.816 98.9119 355.937 98.9119C365.287 98.9119 373.979 101.733 381.206 106.571L381.206 0Z" fill="#0CAA58"/>
</svg>
