<svg width="2017" height="625" viewBox="0 0 2017 625" fill="none" xmlns="http://www.w3.org/2000/svg">
<path d="M0 458.24V7.03999H117.76V360.32H318.72V458.24H0Z" fill="#231F20"/>
<path d="M374.375 458.24V7.03999H693.095V97.92H487.015V183.68H678.375V274.56H487.015V367.36H693.095V458.24H374.375Z" fill="#231F20"/>
<path d="M767.5 458.24V7.03999H954.38C1032.46 7.03999 1093.05 26.6667 1136.14 65.92C1179.23 105.173 1200.78 160.64 1200.78 232.32C1200.78 304 1179.23 359.68 1136.14 399.36C1093.05 438.613 1032.46 458.24 954.38 458.24H767.5ZM885.26 362.88H946.7C991.5 362.88 1024.57 352.213 1045.9 330.88C1067.66 309.12 1078.54 276.267 1078.54 232.32C1078.54 188.373 1067.66 155.733 1045.9 134.4C1024.14 113.067 991.073 102.4 946.7 102.4H885.26V362.88Z" fill="#231F20"/>
<path d="M1270.62 458.24V7.03999H1589.34V97.92H1383.27V183.68H1574.62V274.56H1383.27V367.36H1589.34V458.24H1270.62Z" fill="#231F20"/>
<path d="M1825.18 465.28C1789.77 465.28 1755.85 461.013 1723.42 452.48C1690.99 443.52 1664.33 431.787 1643.42 417.28L1676.06 325.76C1695.69 338.987 1718.73 349.44 1745.18 357.12C1771.63 364.8 1798.3 368.64 1825.18 368.64C1853.34 368.64 1872.97 365.013 1884.06 357.76C1895.58 350.08 1901.34 340.693 1901.34 329.6C1901.34 319.787 1897.29 311.893 1889.18 305.92C1881.5 299.947 1867.63 294.827 1847.58 290.56L1772.7 274.56C1691.63 257.067 1651.1 214.613 1651.1 147.2C1651.1 117.76 1658.99 91.9467 1674.78 69.76C1690.99 47.5733 1713.39 30.5067 1741.98 18.56C1770.57 6.18666 1803.85 0 1841.82 0C1872.97 0 1902.41 4.47999 1930.14 13.44C1958.3 21.9733 1981.13 33.7067 1998.62 48.64L1965.98 134.4C1949.77 122.453 1930.99 113.28 1909.66 106.88C1888.33 100.053 1865.29 96.64 1840.54 96.64C1816.65 96.64 1798.3 100.907 1785.5 109.44C1772.7 117.547 1766.3 128.213 1766.3 141.44C1766.3 150.827 1770.14 158.507 1777.82 164.48C1785.5 170.453 1799.15 175.573 1818.78 179.84L1893.02 195.84C1975.37 213.333 2016.54 254.72 2016.54 320C2016.54 349.44 2008.65 375.04 1992.86 396.8C1977.07 418.56 1954.89 435.413 1926.3 447.36C1897.71 459.307 1864.01 465.28 1825.18 465.28Z" fill="#231F20"/>
<path d="M115.864 623.24V533H172.824V541.832H126.104V573.064H170.136V581.896H126.104V614.408H172.824V623.24H115.864Z" fill="#231F20"/>
<path d="M190.489 623.24V533H198.681L253.081 605.576V533H262.809V623.24H254.873L200.345 550.408V623.24H190.489Z" fill="#231F20"/>
<path d="M326.455 624.392C311.948 624.392 300.897 620.296 293.303 612.104C285.708 603.912 281.911 592.605 281.911 578.184C281.911 568.627 283.617 560.392 287.031 553.48C290.444 546.568 295.351 541.235 301.751 537.48C308.151 533.725 315.873 531.848 324.919 531.848C331.319 531.848 337.207 532.829 342.583 534.792C347.959 536.669 352.524 539.443 356.279 543.112L352.183 551.56C348.087 547.976 343.863 545.373 339.511 543.752C335.159 542.131 330.252 541.32 324.791 541.32C314.551 541.32 306.7 544.563 301.239 551.048C295.777 557.448 293.047 566.493 293.047 578.184C293.047 590.131 295.863 599.261 301.495 605.576C307.127 611.891 315.532 615.048 326.711 615.048C333.964 615.048 340.919 613.811 347.575 611.336V584.584H324.663V576.264H356.663V617.992C354.273 619.272 351.372 620.381 347.959 621.32C344.631 622.259 341.089 622.984 337.335 623.496C333.58 624.093 329.953 624.392 326.455 624.392Z" fill="#231F20"/>
<path d="M378.114 623.24V533H435.074V541.832H388.354V573.064H432.386V581.896H388.354V614.408H435.074V623.24H378.114Z" fill="#231F20"/>
<path d="M452.739 623.24V533H460.931L515.331 605.576V533H525.059V623.24H517.123L462.595 550.408V623.24H452.739Z" fill="#231F20"/>
<path d="M547.489 623.24V533H557.985V572.936H612.129V533H622.625V623.24H612.129V582.024H557.985V623.24H547.489Z" fill="#231F20"/>
<path d="M636.16 623.24L675.968 533H684.928L724.736 623.24H713.856L703.872 600.2H656.896L647.04 623.24H636.16ZM680.32 545.288L660.736 591.368H700.16L680.576 545.288H680.32Z" fill="#231F20"/>
<path d="M738.114 623.24V533H773.826C783.554 533 790.978 535.261 796.098 539.784C801.303 544.307 803.906 550.749 803.906 559.112C803.906 565.768 802.071 571.229 798.402 575.496C794.818 579.763 789.698 582.536 783.042 583.816C786.967 585.181 790.338 588.509 793.154 593.8L809.026 623.24H797.506L781.89 594.312C779.927 590.728 777.666 588.296 775.106 587.016C772.546 585.736 769.175 585.096 764.994 585.096H748.609V623.24H738.114ZM748.609 576.776H772.29C786.455 576.776 793.538 570.888 793.538 559.112C793.538 547.507 786.455 541.704 772.29 541.704H748.609V576.776Z" fill="#231F20"/>
<path d="M823.739 623.24V533H834.234V623.24H823.739Z" fill="#231F20"/>
<path d="M847.785 623.24L887.593 533H896.553L936.361 623.24H925.481L915.497 600.2H868.521L858.665 623.24H847.785ZM891.945 545.288L872.361 591.368H911.785L892.201 545.288H891.945Z" fill="#231F20"/>
<path d="M982.614 623.24V533H1013.08C1027.67 533 1038.93 536.883 1046.87 544.648C1054.81 552.328 1058.77 563.464 1058.77 578.056C1058.77 592.648 1054.81 603.827 1046.87 611.592C1038.93 619.357 1027.67 623.24 1013.08 623.24H982.614ZM993.109 614.28H1012.31C1035.86 614.28 1047.64 602.205 1047.64 578.056C1047.64 553.992 1035.86 541.96 1012.31 541.96H993.109V614.28Z" fill="#231F20"/>
<path d="M1077.61 623.24V533H1134.57V541.832H1087.85V573.064H1131.89V581.896H1087.85V614.408H1134.57V623.24H1077.61Z" fill="#231F20"/>
<path d="M1214.3 624.392C1207.21 624.392 1200.81 623.496 1195.1 621.704C1189.38 619.827 1184.43 617.139 1180.25 613.64L1183.96 605.192C1188.31 608.52 1192.88 610.995 1197.66 612.616C1202.44 614.237 1207.98 615.048 1214.3 615.048C1221.98 615.048 1227.65 613.64 1231.32 610.824C1235.08 607.923 1236.95 604.125 1236.95 599.432C1236.95 595.677 1235.59 592.691 1232.86 590.472C1230.21 588.253 1225.73 586.504 1219.42 585.224L1206.11 582.536C1198.08 580.829 1192.07 578.056 1188.06 574.216C1184.13 570.291 1182.17 565.085 1182.17 558.6C1182.17 553.224 1183.53 548.531 1186.27 544.52C1189.08 540.509 1192.96 537.395 1197.91 535.176C1202.86 532.957 1208.58 531.848 1215.07 531.848C1221.12 531.848 1226.76 532.829 1231.96 534.792C1237.17 536.669 1241.56 539.4 1245.15 542.984L1241.43 551.176C1237.59 547.677 1233.54 545.16 1229.27 543.624C1225.01 542.003 1220.23 541.192 1214.94 541.192C1208.2 541.192 1202.82 542.771 1198.81 545.928C1194.8 549 1192.79 553.096 1192.79 558.216C1192.79 562.312 1194.03 565.555 1196.51 567.944C1199.07 570.333 1203.2 572.083 1208.92 573.192L1222.23 576.008C1230.85 577.8 1237.21 580.531 1241.31 584.2C1245.49 587.784 1247.58 592.691 1247.58 598.92C1247.58 603.955 1246.21 608.392 1243.48 612.232C1240.84 616.072 1237 619.059 1231.96 621.192C1227.01 623.325 1221.12 624.392 1214.3 624.392Z" fill="#231F20"/>
<path d="M1301.75 624.392C1293.39 624.392 1286.09 622.515 1279.86 618.76C1273.72 614.92 1268.94 609.544 1265.53 602.632C1262.2 595.72 1260.54 587.528 1260.54 578.056C1260.54 568.584 1262.2 560.392 1265.53 553.48C1268.86 546.568 1273.59 541.235 1279.74 537.48C1285.96 533.725 1293.3 531.848 1301.75 531.848C1310.28 531.848 1317.62 533.725 1323.77 537.48C1330 541.235 1334.78 546.568 1338.1 553.48C1341.52 560.307 1343.22 568.456 1343.22 577.928C1343.22 587.4 1341.52 595.635 1338.1 602.632C1334.69 609.544 1329.87 614.92 1323.64 618.76C1317.5 622.515 1310.2 624.392 1301.75 624.392ZM1301.75 615.048C1311.39 615.048 1318.86 611.805 1324.15 605.32C1329.44 598.835 1332.09 589.747 1332.09 578.056C1332.09 566.365 1329.44 557.32 1324.15 550.92C1318.86 544.435 1311.39 541.192 1301.75 541.192C1292.28 541.192 1284.9 544.435 1279.61 550.92C1274.32 557.32 1271.67 566.365 1271.67 578.056C1271.67 589.661 1274.32 598.749 1279.61 605.32C1284.9 611.805 1292.28 615.048 1301.75 615.048Z" fill="#231F20"/>
<path d="M1361.99 623.24V533H1417.8V541.832H1372.48V573.32H1415.24V582.152H1372.48V623.24H1361.99Z" fill="#231F20"/>
<path d="M1454.38 623.24V542.088H1421.61V533H1497.77V542.088H1465.01V623.24H1454.38Z" fill="#231F20"/>
<path d="M1535.06 623.24L1503.44 533H1514.45L1539.92 607.88L1566.03 533H1574.48L1600.34 608.52L1626.32 533H1636.82L1605.2 623.24H1595.86L1570.13 549L1544.15 623.24H1535.06Z" fill="#231F20"/>
<path d="M1635.91 623.24L1675.72 533H1684.68L1724.49 623.24H1713.61L1703.62 600.2H1656.65L1646.79 623.24H1635.91ZM1680.07 545.288L1660.49 591.368H1699.91L1680.33 545.288H1680.07Z" fill="#231F20"/>
<path d="M1737.86 623.24V533H1773.58C1783.3 533 1790.73 535.261 1795.85 539.784C1801.05 544.307 1803.66 550.749 1803.66 559.112C1803.66 565.768 1801.82 571.229 1798.15 575.496C1794.57 579.763 1789.45 582.536 1782.79 583.816C1786.72 585.181 1790.09 588.509 1792.9 593.8L1808.78 623.24H1797.26L1781.64 594.312C1779.68 590.728 1777.42 588.296 1774.86 587.016C1772.3 585.736 1768.92 585.096 1764.74 585.096H1748.36V623.24H1737.86ZM1748.36 576.776H1772.04C1786.2 576.776 1793.29 570.888 1793.29 559.112C1793.29 547.507 1786.2 541.704 1772.04 541.704H1748.36V576.776Z" fill="#231F20"/>
<path d="M1823.49 623.24V533H1880.45V541.832H1833.73V573.064H1877.76V581.896H1833.73V614.408H1880.45V623.24H1823.49Z" fill="#231F20"/>
</svg>
